<?xml version="1.0" encoding="utf-8"?>
<!-- Generator: Adobe Illustrator 16.0.0, SVG Export Plug-In . SVG Version: 6.00 Build 0)  -->
<!DOCTYPE svg PUBLIC "-//W3C//DTD SVG 1.1//EN" "http://www.w3.org/Graphics/SVG/1.1/DTD/svg11.dtd">
<svg version="1.1" id="Layer_1" xmlns="http://www.w3.org/2000/svg" xmlns:xlink="http://www.w3.org/1999/xlink" x="0px" y="0px"
	 width="512px" height="512px" viewBox="0 0 512 512" enable-background="new 0 0 512 512" xml:space="preserve">
<g id="_x32_4._online_x2C__training_x2C__lesson_x2C__video_x2C__learning_x2C__teacher">
	<g>
		<rect x="28.007" y="51.928" fill="#E6E9ED" width="455.987" height="264.148"/>
	</g>
	<g>
		<path fill="#FFCE54" d="M52.007,131.926h175.994h79.998v159.995H52.007V131.926z"/>
	</g>
	<g>
		<rect x="228.001" y="85.497" fill="#656D78" width="55.999" height="22.461"/>
	</g>
	<g opacity="0.1">
		<rect x="228.001" y="85.497" width="55.999" height="22.461"/>
	</g>
	<g>
		<path fill="#ED5565" d="M256,355.919c6.641,0,12,5.359,12,11.999c0,6.641-5.359,12-12,12c-6.64,0-11.999-5.359-11.999-12
			C244.001,361.278,249.36,355.919,256,355.919z"/>
	</g>
	<g>
		<path fill="#CCD1D9" d="M507.992,372.074v15.844c0,13.516-10.483,23.999-23.998,23.999c-5.68,0-85.037,0-176.073,0
			c-34.077,0-69.764,0-103.841,0c-91.036,0-170.394,0-176.073,0c-13.515,0-23.999-10.483-23.999-23.999v-15.844
			c0,13.203,10.797,24,23.999,24H256h227.994C497.196,396.074,507.992,385.277,507.992,372.074z"/>
	</g>
	<g>
		<path fill="#CCD1D9" d="M307.921,411.917l15.999,71.998H188.08l16-71.998C238.157,411.917,273.844,411.917,307.921,411.917z"/>
	</g>
	<g opacity="0.5">
		<polygon fill="#FFFFFF" points="200.533,427.917 188.08,483.915 204.08,483.915 216.533,427.917 		"/>
	</g>
	<g opacity="0.2">
		<polygon points="311.468,427.917 323.92,483.915 307.921,483.915 295.468,427.917 		"/>
	</g>
	<g opacity="0.7">
		<g>
			<path fill="#FFFFFF" d="M29.46,396.074h-1.453c-13.202,0-23.999-10.797-23.999-24v15.844c0,13.516,10.484,23.999,23.999,23.999
				c1.734,0,10.359,0,24,0C41.382,411.917,32.726,405.401,29.46,396.074z"/>
		</g>
	</g>
	<g opacity="0.1">
		<g>
			<path d="M482.541,396.074h1.453c13.202,0,23.998-10.797,23.998-24v15.844c0,13.516-10.483,23.999-23.998,23.999
				c-1.734,0-10.359,0-24,0C470.619,411.917,479.275,405.401,482.541,396.074z"/>
		</g>
	</g>
	<g>
		<path fill="#E6E9ED" d="M507.992,339.92v32.154c0,13.203-10.796,24-23.998,24H256v-16.156c6.641,0,12-5.359,12-12
			c0-6.64-5.359-11.999-12-11.999V339.92H507.992z"/>
	</g>
	<g>
		<path fill="#E6E9ED" d="M256,379.918v16.156H28.007c-13.202,0-23.999-10.797-23.999-24v-0.156V339.92H256v15.999
			c-6.64,0-11.999,5.359-11.999,11.999C244.001,374.559,249.36,379.918,256,379.918z"/>
	</g>
	<g>
		<path fill="#FFFFFF" d="M28.007,372.074v-0.156V339.92H4.008v31.998v0.156c0,13.203,10.797,24,23.999,24h24
			C38.804,396.074,28.007,385.277,28.007,372.074z"/>
	</g>
	<g opacity="0.2">
		<path d="M483.994,372.074v-0.156V339.92h23.998v31.998v0.156c0,13.203-10.796,24-23.998,24h-24
			C473.197,396.074,483.994,385.277,483.994,372.074z"/>
	</g>
	<g>
		<path fill="#656D78" d="M507.992,52.084V339.92H256H4.008V52.084c0-13.194,10.797-23.999,23.999-23.999h455.987
			C497.196,28.085,507.992,38.89,507.992,52.084z M483.994,315.92V67.928v-16h-16h-16h-23.999h-15.999h-16h-16h-15.999H188.002
			h-31.999h-31.999H92.005H60.006H28.007v16V315.92H483.994z"/>
	</g>
	<g opacity="0.2">
		<g>
			<path fill="#FFFFFF" d="M28.007,67.928V52.084v-0.156h0.016c0.094-13.125,10.844-23.843,23.984-23.843h-24
				c-13.202,0-23.999,10.805-23.999,23.999V339.92h23.999v-24V67.928z"/>
		</g>
	</g>
	<g opacity="0.2">
		<g>
			<path d="M483.994,67.928V52.084v-0.156h-0.016c-0.094-13.125-10.844-23.843-23.984-23.843h24
				c13.202,0,23.998,10.805,23.998,23.999V339.92h-23.998v-24V67.928z"/>
		</g>
	</g>
	<g opacity="0.2">
		<path d="M311.476,427.917l-3.555-16c-34.077,0-69.764,0-103.841,0l-3.555,16H311.476z"/>
	</g>
	<g>
		<path fill="#3A3847" d="M420.237,95.958c-2.21,0-4.038-1.789-4.038-4s1.75-4,3.952-4h0.086c2.203,0,4,1.789,4,4
			S422.44,95.958,420.237,95.958z"/>
	</g>
	<g>
		<path fill="#3A3847" d="M460.236,95.958c-2.211,0-4.039-1.789-4.039-4s1.75-4,3.953-4h0.086c2.203,0,4,1.789,4,4
			S462.439,95.958,460.236,95.958z"/>
	</g>
	<g>
		<path fill="#3A3847" d="M444.236,95.958c-2.21,0-4.038-1.789-4.038-4s1.75-4,3.952-4h0.086c2.203,0,4,1.789,4,4
			S446.439,95.958,444.236,95.958z"/>
	</g>
	<g>
		<path fill="#ED5565" d="M395.996,259.922c4.398,0,8,3.594,8,8c0,4.477-3.602,8-8,8h-47.998c-4.398,0-8-3.523-8-8
			c0-4.406,3.602-8,8-8H395.996z"/>
	</g>
	<g opacity="0.3">
		<path fill="#FFFFFF" d="M347.998,267.922c0-4.406,3.602-8,8-8h-8c-4.398,0-8,3.594-8,8c0,4.477,3.602,8,8,8h8
			C351.6,275.922,347.998,272.398,347.998,267.922z"/>
	</g>
	<g opacity="0.2">
		<path d="M395.996,267.922c0,4.406-3.602,8-8,8h8c4.398,0,8-3.594,8-8c0-4.477-3.602-8-8-8h-8
			C392.395,259.922,395.996,263.445,395.996,267.922z"/>
	</g>
	<g opacity="0.2">
		<polygon points="284,85.497 228.001,85.497 228.001,93.466 256,99.927 282.562,93.763 284,93.435 		"/>
	</g>
	<g>
		<polygon fill="#656D78" points="307.999,79.927 282.562,85.763 256,91.927 204.002,79.927 256,67.928 		"/>
	</g>
	<g opacity="0.2">
		<polygon fill="#FFFFFF" points="228.001,79.927 268,70.693 256,67.928 204.002,79.927 256,91.927 267.969,89.153 		"/>
	</g>
	<g opacity="0.2">
		<polygon points="284,79.927 256,73.467 268,70.693 307.999,79.927 267.969,89.161 256,86.396 		"/>
	</g>
	<g>
		<path fill="#E6E9ED" d="M96.005,155.925c11.039,0,20,8.953,20,20c0,11.117-8.961,20-20,20c-11.038,0-19.999-8.883-19.999-20
			C76.006,164.878,84.967,155.925,96.005,155.925z"/>
	</g>
	<g>
		<path fill="#FFFFFF" d="M84.006,175.924c0-9.671,6.875-17.742,15.999-19.593c-1.297-0.266-2.633-0.406-4-0.406
			c-11.038,0-19.999,8.953-19.999,20c0,11.117,8.961,20,19.999,20c1.367,0,2.703-0.141,4-0.398
			C90.881,193.682,84.006,185.658,84.006,175.924z"/>
	</g>
	<g opacity="0.2">
		<path d="M108.005,175.924c0,9.671-6.875,17.742-16,19.593c1.297,0.266,2.633,0.406,4,0.406c11.039,0,20-8.953,20-20
			c0-11.117-8.961-20-20-20c-1.367,0-2.703,0.141-4,0.398C101.13,158.167,108.005,166.19,108.005,175.924z"/>
	</g>
	<g>
		<path fill="#5D9CEC" d="M200.002,231.603c0,3.359,11.922,9.273,18.078,11.593c6.64,2.484,9.921,4.96,9.921,11.523
			c0,6.641,0,13.203,0,13.203v8h-95.997v-8c0,0,0-6.562,0-13.203c0-6.562,3.281-9.039,9.922-11.523
			c6.156-2.32,18.077-8.234,18.077-11.593v-8.484c6,7.68,14,12.805,20,12.805s13.999-5.125,19.999-12.805V231.603z"/>
	</g>
	<g opacity="0.3">
		<g>
			<path fill="#FFFFFF" d="M160.003,231.603c0,3.359-11.921,9.273-18.077,11.593c-6.641,2.484-9.922,4.96-9.922,11.523
				c0,6.641,0,13.203,0,13.203v8h8c0,0,0-6.562,0-13.203c0-6.562,3.281-9.039,9.922-11.523c6.155-2.32,18.077-8.234,18.077-11.593
				v-7.25c-2.047-2.102-5.211-5.672-8-9.234V231.603z"/>
		</g>
		<g>
			<path fill="#FFFFFF" d="M168.003,231.118v1.234C170.362,234.782,171.214,235.235,168.003,231.118z"/>
		</g>
	</g>
	<g opacity="0.2">
		<g>
			<path d="M200.002,231.603c0,3.359,11.922,9.273,18.078,11.593c6.64,2.484,9.921,4.96,9.921,11.523c0,6.641,0,13.203,0,13.203v8
				h-8c0,0,0-6.562,0-13.203c0-6.562-3.28-9.039-9.921-11.523c-6.156-2.32-18.078-8.234-18.078-11.593v-7.25
				c2.047-2.102,5.211-5.672,8-9.234V231.603z"/>
		</g>
		<g>
			<path d="M192.002,231.118v1.234C189.643,234.782,188.791,235.235,192.002,231.118z"/>
		</g>
	</g>
	<g>
		<path fill="#EAC6BB" d="M200.002,223.118c-6,7.68-13.999,12.805-19.999,12.805s-14-5.125-20-12.805
			c-4.64-6.078-7.999-13.679-7.999-21.515c0-17.844,12.562-29.679,27.999-29.679c15.437,0,27.999,11.835,27.999,29.679
			C208.002,209.439,204.643,217.04,200.002,223.118z"/>
	</g>
	<g opacity="0.5">
		<path fill="#FFFFFF" d="M168.003,223.118c-4.641-6.078-8-13.679-8-21.515c0-16.258,10.469-27.421,24-29.296
			c-1.32-0.18-2.633-0.382-4-0.382c-15.438,0-27.999,11.835-27.999,29.679c0,7.835,3.359,15.437,7.999,21.515
			c6,7.68,14,12.805,20,12.805c1.25,0,2.609-0.273,4-0.695C178.737,233.618,172.753,229.196,168.003,223.118z"/>
	</g>
	<g opacity="0.2">
		<path d="M192.002,223.118c4.641-6.078,8-13.679,8-21.515c0-16.258-10.469-27.421-23.999-29.296c1.32-0.18,2.633-0.382,4-0.382
			c15.437,0,27.999,11.835,27.999,29.679c0,7.835-3.359,15.437-8,21.515c-6,7.68-13.999,12.805-19.999,12.805
			c-1.25,0-2.609-0.273-4-0.695C181.269,233.618,187.253,229.196,192.002,223.118z"/>
	</g>
	<g>
		<rect x="52.007" y="275.922" fill="#656D78" width="255.914" height="15.999"/>
	</g>
	<g>
		<rect x="52.007" y="275.922" fill="#AAB2BD" width="127.957" height="15.999"/>
	</g>
	<g>
		<polygon fill="#A0D468" points="307.921,252.414 253,131.926 307.999,131.926 		"/>
	</g>
	<g opacity="0.5">
		<rect x="52.007" y="131.926" fill="#FFFFFF" width="7.999" height="159.995"/>
	</g>
	<g opacity="0.2">
		<rect x="299.999" y="131.926" width="8" height="159.995"/>
	</g>
	<g opacity="0.2">
		<polygon fill="#FFFFFF" points="236.001,95.31 228.001,93.466 228.001,107.958 236.001,107.958 		"/>
	</g>
	<g opacity="0.2">
		<polygon points="276,95.31 284,93.466 284,107.958 276,107.958 		"/>
	</g>
	<g>
		<g>
			<path fill="#3A3847" d="M507.992,343.919H4.008c-2.211,0-4-1.789-4-3.999c0-2.211,1.789-4,4-4h503.984c2.211,0,4,1.789,4,4
				C511.992,342.13,510.203,343.919,507.992,343.919z"/>
		</g>
		<g>
			<path fill="#3A3847" d="M256,383.918c-8.819,0-15.999-7.18-15.999-16c0-8.819,7.18-15.999,15.999-15.999
				c8.82,0,16,7.18,16,15.999C272,376.738,264.82,383.918,256,383.918z M256,359.919c-4.413,0-7.999,3.586-7.999,7.999
				c0,4.414,3.586,8,7.999,8c4.414,0,8-3.586,8-8C264,363.505,260.414,359.919,256,359.919z"/>
		</g>
		<g>
			<path fill="#3A3847" d="M188.08,487.915c-0.28,0-0.577-0.031-0.866-0.094c-2.156-0.484-3.516-2.617-3.039-4.773l15.999-71.998
				c0.477-2.148,2.594-3.5,4.773-3.039c2.156,0.484,3.516,2.617,3.039,4.773l-16,71.998
				C191.572,486.649,189.916,487.915,188.08,487.915z"/>
		</g>
		<g>
			<path fill="#3A3847" d="M323.92,487.915c-1.836,0-3.492-1.266-3.906-3.133l-15.999-71.998c-0.477-2.156,0.883-4.289,3.039-4.773
				c2.188-0.461,4.297,0.891,4.773,3.039l15.999,71.998c0.477,2.156-0.883,4.289-3.039,4.773
				C324.498,487.884,324.201,487.915,323.92,487.915z"/>
		</g>
		<g>
			<path fill="#3A3847" d="M335.998,487.915H176.003c-2.211,0-4-1.789-4-4s1.789-4,4-4h159.995c2.211,0,4,1.789,4,4
				S338.209,487.915,335.998,487.915z"/>
		</g>
		<g>
			<path fill="#3A3847" d="M483.994,320.076H28.007c-2.21,0-3.999-1.789-3.999-4V52.084c0-2.21,1.789-4,3.999-4h455.987
				c2.21,0,3.999,1.789,3.999,4v263.992C487.993,318.287,486.204,320.076,483.994,320.076z M32.007,312.076h447.987V56.084H32.007
				V312.076z"/>
		</g>
		<g>
			<path fill="#3A3847" d="M483.994,400.074H28.007c-15.437,0-27.999-12.562-27.999-28c0-0.023,0-0.055,0-0.078s0-0.055,0-0.078
				V52.084c0-15.437,12.562-27.999,27.999-27.999h455.987c15.437,0,27.998,12.562,27.998,27.999v319.99
				C511.992,387.512,499.431,400.074,483.994,400.074z M8.008,371.996c0,0.023,0,0.055,0,0.078c0,11.031,8.969,20,19.999,20h455.987
				c11.03,0,19.999-8.969,19.999-20V52.084c0-11.03-8.969-19.999-19.999-19.999H28.007c-11.03,0-19.999,8.969-19.999,19.999v319.834
				C8.008,371.941,8.008,371.973,8.008,371.996z"/>
		</g>
		<g>
			<path fill="#3A3847" d="M483.994,415.917H28.007c-15.702,0-27.999-12.296-27.999-27.999v-15.844c0-2.211,1.789-4.078,4-4.078
				s4,1.711,4,3.922v16c0,11.398,8.602,19.999,19.999,19.999h455.987c11.397,0,19.999-8.601,19.999-19.999v-15.844
				c0-2.211,1.789-4,3.999-4c2.211,0,4,1.789,4,4v15.844C511.992,403.621,499.696,415.917,483.994,415.917z"/>
		</g>
		<g>
			<path fill="#3A3847" d="M228.001,111.926c-2.211,0-4-1.789-4-4v-16c0-2.211,1.789-4,4-4s4,1.789,4,4v16
				C232.001,110.137,230.212,111.926,228.001,111.926z"/>
		</g>
		<g>
			<path fill="#3A3847" d="M284,111.926h-55.999c-2.211,0-4-1.789-4-4c0-2.211,1.789-4,4-4H284c2.211,0,4,1.789,4,4
				C288,110.137,286.211,111.926,284,111.926z"/>
		</g>
		<g>
			<path fill="#3A3847" d="M284,111.926c-2.211,0-4-1.789-4-4v-16c0-2.211,1.789-4,4-4s4,1.789,4,4v16
				C288,110.137,286.211,111.926,284,111.926z"/>
		</g>
		<g>
			<path fill="#3A3847" d="M256,95.927c-0.305,0-0.602-0.031-0.898-0.102l-51.998-12c-1.812-0.422-3.102-2.039-3.102-3.898
				s1.289-3.477,3.102-3.898l51.998-12c0.594-0.141,1.203-0.141,1.797,0l51.999,12c1.82,0.422,3.102,2.039,3.102,3.898
				c0,1.867-1.289,3.484-3.109,3.898l-51.983,12C256.609,95.896,256.305,95.927,256,95.927z M221.79,79.927l34.21,7.89l34.164-7.898
				L256,72.029L221.79,79.927z"/>
		</g>
		<g>
			<path fill="#3A3847" d="M76.006,95.927H52.007c-2.211,0-4-1.789-4-4s1.789-4,4-4h23.999c2.211,0,4,1.789,4,4
				S78.217,95.927,76.006,95.927z"/>
		</g>
		<g>
			<path fill="#3A3847" d="M403.996,95.927h-63.998c-2.211,0-4-1.789-4-4s1.789-4,4-4h63.998c2.211,0,4,1.789,4,4
				S406.207,95.927,403.996,95.927z"/>
		</g>
		<g>
			<path fill="#3A3847" d="M124.004,95.927h-23.999c-2.211,0-4-1.789-4-4s1.789-4,4-4h23.999c2.211,0,4,1.789,4,4
				S126.215,95.927,124.004,95.927z"/>
		</g>
		<g>
			<path fill="#3A3847" d="M172.003,95.927h-23.999c-2.211,0-4-1.789-4-4s1.789-4,4-4h23.999c2.211,0,4,1.789,4,4
				S174.214,95.927,172.003,95.927z"/>
		</g>
		<g>
			<path fill="#3A3847" d="M52.007,295.921c-2.211,0-4-1.789-4-4V131.926c0-2.211,1.789-4,4-4s4,1.789,4,4v159.995
				C56.007,294.132,54.218,295.921,52.007,295.921z"/>
		</g>
		<g>
			<path fill="#3A3847" d="M307.999,295.921c-2.211,0-4-1.789-4-4V131.926c0-2.211,1.789-4,4-4s4,1.789,4,4v159.995
				C311.999,294.132,310.21,295.921,307.999,295.921z"/>
		</g>
		<g>
			<path fill="#3A3847" d="M307.999,135.926H52.007c-2.211,0-4-1.789-4-4s1.789-4,4-4h255.992c2.211,0,4,1.789,4,4
				S310.21,135.926,307.999,135.926z"/>
		</g>
		<g>
			<path fill="#3A3847" d="M307.999,295.921H52.007c-2.211,0-4-1.789-4-4s1.789-4,4-4h255.992c2.211,0,4,1.789,4,4
				S310.21,295.921,307.999,295.921z"/>
		</g>
		<g>
			<path fill="#3A3847" d="M299.999,279.921H60.006c-2.21,0-3.999-1.789-3.999-3.999c0-2.211,1.789-4,3.999-4h239.993
				c2.211,0,4,1.789,4,4C303.999,278.132,302.21,279.921,299.999,279.921z"/>
		</g>
		<g>
			<path fill="#3A3847" d="M132.004,271.922c-2.211,0-4-1.789-4-4v-13.203c0-9.766,6.461-13,12.523-15.273
				c6.961-2.617,14.125-6.789,15.546-8.585c0.344-1.852,1.977-3.258,3.93-3.258c2.211,0,4,1.789,4,4
				c0,7-15.819,13.507-20.663,15.335c-6.328,2.367-7.336,3.938-7.336,7.781v13.203C136.004,270.133,134.215,271.922,132.004,271.922
				z"/>
		</g>
		<g>
			<path fill="#3A3847" d="M228.001,271.922c-2.211,0-4-1.789-4-4v-13.203c0-3.844-1.008-5.414-7.319-7.773
				c-4.859-1.836-20.68-8.343-20.68-15.343c0-2.211,1.789-4,4-4c1.953,0,3.586,1.406,3.93,3.258
				c1.422,1.797,8.594,5.968,15.562,8.593c6.046,2.266,12.507,5.5,12.507,15.265v13.203
				C232.001,270.133,230.212,271.922,228.001,271.922z"/>
		</g>
		<g>
			<path fill="#3A3847" d="M180.003,239.922c-7.258,0-16.344-5.632-23.148-14.343c-5.718-7.484-8.851-15.984-8.851-23.976
				c0-19.203,13.757-33.679,31.999-33.679c18.241,0,31.999,14.476,31.999,33.679c0,7.992-3.133,16.491-8.82,23.944
				C196.346,234.29,187.261,239.922,180.003,239.922z M180.003,175.924c-13.906,0-24,10.796-24,25.679
				c0,6.242,2.547,13.022,7.18,19.085c6.023,7.711,12.945,11.234,16.82,11.234s10.796-3.523,16.851-11.266
				c4.602-6.031,7.148-12.812,7.148-19.054C204.002,186.721,193.908,175.924,180.003,175.924z"/>
		</g>
		<g>
			<path fill="#3A3847" d="M200.002,235.603c-2.211,0-4-1.789-4-4v-8.484c0-2.211,1.789-4.039,4-4.039s4,1.75,4,3.961v8.562
				C204.002,233.813,202.213,235.603,200.002,235.603z"/>
		</g>
		<g>
			<path fill="#3A3847" d="M160.003,235.603c-2.211,0-4-1.789-4-4v-8.484c0-2.211,1.789-4.039,4-4.039s4,1.75,4,3.961v8.562
				C164.003,233.813,162.214,235.603,160.003,235.603z"/>
		</g>
		<g>
			<path fill="#3A3847" d="M96.005,199.924c-13.233,0-23.999-10.766-23.999-24s10.766-24,23.999-24c13.234,0,24,10.766,24,24
				S109.239,199.924,96.005,199.924z M96.005,159.925c-8.819,0-15.999,7.18-15.999,16s7.18,16,15.999,16c8.82,0,16-7.18,16-16
				S104.825,159.925,96.005,159.925z"/>
		</g>
		<g>
			<path fill="#3A3847" d="M96.005,179.924c-2.211,0-4-1.789-4-4v-12c0-2.211,1.789-4,4-4s4,1.789,4,4v12
				C100.005,178.135,98.216,179.924,96.005,179.924z"/>
		</g>
		<g>
			<path fill="#3A3847" d="M102.161,186.08c-1.023,0-2.047-0.391-2.828-1.172l-6.156-6.156c-1.562-1.562-1.562-4.094,0-5.656
				c1.562-1.562,4.094-1.562,5.656,0l6.156,6.156c1.562,1.562,1.562,4.093,0,5.656C104.208,185.689,103.185,186.08,102.161,186.08z"
				/>
		</g>
		<g>
			<path fill="#3A3847" d="M307.921,256.414c-1.516,0-2.969-0.867-3.641-2.344l-54.92-120.488c-0.914-2.008-0.031-4.383,1.984-5.297
				c1.991-0.906,4.382-0.031,5.296,1.984l54.921,120.488c0.914,2.008,0.031,4.383-1.984,5.297
				C309.046,256.297,308.476,256.414,307.921,256.414z"/>
		</g>
		<g>
			<path fill="#3A3847" d="M292,186.557c-1.508,0-2.953-0.859-3.633-2.32l-16-34.632c-0.922-2.007-0.047-4.382,1.953-5.312
				c2.016-0.922,4.375-0.055,5.312,1.953l15.999,34.631c0.922,2.008,0.047,4.383-1.953,5.312
				C293.132,186.439,292.562,186.557,292,186.557z"/>
		</g>
		<g>
			<path fill="#3A3847" d="M459.994,151.925H339.998c-2.211,0-4-1.789-4-4c0-2.211,1.789-4,4-4h119.996c2.211,0,4,1.789,4,4
				C463.994,150.136,462.205,151.925,459.994,151.925z"/>
		</g>
		<g>
			<path fill="#3A3847" d="M459.994,175.924H339.998c-2.211,0-4-1.789-4-4c0-2.211,1.789-4,4-4h119.996c2.211,0,4,1.789,4,4
				C463.994,174.135,462.205,175.924,459.994,175.924z"/>
		</g>
		<g>
			<path fill="#3A3847" d="M459.994,199.924H339.998c-2.211,0-4-1.789-4-4s1.789-4,4-4h119.996c2.211,0,4,1.789,4,4
				S462.205,199.924,459.994,199.924z"/>
		</g>
		<g>
			<path fill="#3A3847" d="M403.996,223.923h-63.998c-2.211,0-4-1.789-4-4s1.789-4,4-4h63.998c2.211,0,4,1.789,4,4
				S406.207,223.923,403.996,223.923z"/>
		</g>
		<g>
			<path fill="#3A3847" d="M347.998,279.921c-6.617,0-12-5.382-12-11.999s5.383-12,12-12c2.211,0,4,1.789,4,4s-1.789,4-4,4
				c-2.203,0-4,1.797-4,4c0,2.242,1.758,4,4,4c2.211,0,4,1.789,4,4C351.998,278.132,350.209,279.921,347.998,279.921z"/>
		</g>
		<g>
			<path fill="#3A3847" d="M395.996,279.921c-2.211,0-4-1.789-4-3.999c0-2.211,1.789-4,4-4c2.242,0,4-1.758,4-4c0-2.203-1.797-4-4-4
				c-2.211,0-4-1.789-4-4s1.789-4,4-4c6.617,0,12,5.383,12,12S402.613,279.921,395.996,279.921z"/>
		</g>
		<g>
			<path fill="#3A3847" d="M395.996,263.922h-47.998c-2.211,0-4-1.789-4-4s1.789-4,4-4h47.998c2.211,0,4,1.789,4,4
				S398.207,263.922,395.996,263.922z"/>
		</g>
		<g>
			<path fill="#3A3847" d="M395.996,279.921h-47.998c-2.211,0-4-1.789-4-3.999c0-2.211,1.789-4,4-4h47.998c2.211,0,4,1.789,4,4
				C399.996,278.132,398.207,279.921,395.996,279.921z"/>
		</g>
		<g>
			<path fill="#3A3847" d="M180.003,295.921c-2.211,0-4-1.789-4-4v-15.999c0-2.211,1.789-4,4-4s4,1.789,4,4v15.999
				C184.003,294.132,182.214,295.921,180.003,295.921z"/>
		</g>
	</g>
</g>
</svg>
